<svg data-v-1084b650="" xmlns="http://www.w3.org/2000/svg" viewBox="0 0 300 300"><!----> <!----> <rect data-v-1084b650="" fill="#ffffff" x="0" y="0" width="300px" height="300px" class="logo-background-square"></rect> <!----> <linearGradient data-v-1084b650="" gradientTransform="rotate(25)" id="7891450a-7d6c-30c8-c8c9-9af873a8507b" x1="0%" y1="0%" x2="100%" y2="0%"><stop data-v-1084b650="" offset="0%" style="stop-color: rgb(86, 63, 51); stop-opacity: 1;"></stop> <stop data-v-1084b650="" offset="100%" style="stop-color: rgb(163, 161, 161); stop-opacity: 1;"></stop></linearGradient> <g data-v-1084b650="" id="5b56f33c-0986-e6a8-cde8-36e542bad236" fill="url(#7891450a-7d6c-30c8-c8c9-9af873a8507b)" stroke="none" transform="matrix(0.7499999999999998,0,0,0.7499999999999998,37.464523315429716,37.56212353706363)"><svg xmlns="http://www.w3.org/2000/svg" viewBox="0 0 66 66"><path d="M34.4 44.8c-.1.1-.3.5-.4.6-.6 1.8-2.9 2.8-4.1 2.8-.7 1.1-.4 1.2-.5 1.7 1.3 1.7 1.7-.5 4.7-.4 2.7 0 2.8-.7 3.7-2 .4-.5.8-1.1 1.1-1.6-2.1-.7-3.5-.3-4.5-1.1zM28.7 49.5c0-.3 0-.6.3-1.1.1-.1.1-.2.2-.4-.4-.2-.6-.6-.6-1-1.9 0-2.3.1-3.5-.1 0 .6-.2 1.4-1.9 2.5 1.8 2.7 5.5 1 5.5.1zM23.7 47.1c.4-1.4-.4-1.2-.6-1.7-.7-.5-.9-.8-1-1.5h-.4c0 1.1 0 4.3.7 5 .9-.8 1.1-1.3 1.3-1.8zM22.7 43.8c.1.4.1.5.8 1.1 1.6 1.3 3.6 1.8 5.8 1.4.1-1 0-2.4-.7-3.7h-.2c-.7.3-2.1.5-3.4.1-.3.8-1.3 1-2.3 1.1zM37.2 41.5c-.6.1-1 0-1.6-.1-.2 0-.3-.1-.4-.1-1 .4-1.3 1.6-.8 2.4l.1.1c.4 1.2 2.4.6 4.6 1.4.5.1.8.1 1-.9-1.4-.1-3.1-1.1-2.9-2.8z"></path><path d="M32 42.2c-.6.1-2.2 0-2.7-.4 0 .1-.1.1-.2.2.6 1.2 1 2.6.9 4v.4c0 .2-.2 1-.2 1.1 3.3 0 5.1-3.8 2.2-5.3zM32.3 21.8c-.2-.3-1.4-.8-2.6-.2-.9.5-1.4 1.3-1.4 2.3 0 0 2.6 9.5 1.6 13.5-.3 1.1-.4 1.8-.5 2.4.2.6.3 1 .2 1.4.3.2.8.2 1.4.3.9.1 3.2.2 1.7-3.2-1.3-2.9.6-14.2.6-14.5.1-.8-.4-1.6-1-2z"></path><path d="M29.7 8.3c-1.1-.3-2.7.2-2.5 1.3 0 .2 2.2 5.8.4 10.3-.3.8.5 1.6 1 1.8 1-1 2.5-1.2 3.8-.6.4-.3.7-1.3.5-1.8-.5-1.3-2.7-5.4-1.9-8.5.3-1.5-.4-2.3-1.3-2.5zM27.8 7.7c.9-.4 1.8-.1 1.9-.1.5-.2.8-.7.8-1.1C30.5 6 29 4.9 29 2c0-1.7-2.3-1.1-1.9.3.9 3.1-1.4 4.7.7 5.4zM33.8 50.1c-2.5 0-3.2 2.2-4.9.3-.1.1-.3.2-.4.4-.3.8.1 1.7.3 2.4 1.6 4.3 3.9 5.4 2.3 11.7h3.1s-.6-4.1 1.4-8.3c1.4-3 .7-5.4 0-6.7-.7.2-1.5.2-1.8.2z"></path><path d="M23.5 50.8c-1 8.5.9 14.2.9 14.2h2.2c-2.1-11.5 2.7-11 1.5-13.9-1.2.7-3.2.8-4.6-.3zM35.8 27.2c.1 3.2 0 6.7-.7 8.8-.6 1.7-.9 2.8-.9 3.4-.1 1.2.6 1.1 1.6 1.4 1.9.4 3-.3 2.1-3.4-.6-2.4.7-8.9 1.7-13V24c.1-.9-.6-1.9-1.7-2.3-.8-.3-2.6.2-3.5 2.1-.3 2-.4 3.2-.7 5.4.6-.6 1.3-1.4 2.1-2zM22.6 33.8c0 .1.1.3.1.4.5.2 1 .5 1.4.8l-.6-2.4c-1-.7-1.4-1.4-2-1.7.3.3 1.1 1.9 1.1 2.9zM23 43.1c.8-.1 2.9-.5.8-3.3-.7-1-2-7.3-2.7-8.4-.8-1.3-2.8-.3-2.3 1.2 0 .1 2.3 5.2 2.3 7 0 4.2.4 3.7 1.9 3.5zM23.3 28.5c.1.2 2.2 5.2 2.2 7-.1 4.2.4 3.6 1.8 3.5.8-.1 2.9-.4.9-3.2-.7-1-1.8-7.3-2.5-8.4-.6-.9-2-.8-2.4.3-.1.2-.1.5 0 .8zM27.5 31.2c.6.4 1.1.8 1.5 1.2-.1-.9-.3-1.9-.4-2.8-1.2-1.3-1.3-1.9-2.2-2.5.4.8.4 1 1.1 4.1zM27.2 42.1c1.8-.1 2.2-1 1.4-2.7-.5.2-2.4.7-3.1.1-.1 3 .4 2.6 1.7 2.6z"></path><path d="M38.7 34.9c2.3-.9 2.7-.9 4-1.1-.5-1 .1-3.3 1.7-4.3-2.1.3-2.8 1.7-5.5 2.7 0 1.1-.1 2-.2 2.7z"></path><path d="M47.2 31.1c-.9-2.9-4.6-.1-3.7 2.4-.8 2.3-2.7 4.3-4.6 5.9-.1.1 0 1.2-1 1.8-.2.8.1 1.8 1.6 2.3 3.4 1.2 4.2-3.7 4.2-3.7s1.1-3.7 2.6-6.1c.2-.4.7-1 .8-1.1 0 0 .1-.4.2-.6 0-.3 0-.6-.1-.9z"></path></svg></g></svg>