<svg data-v-1084b650="" xmlns="http://www.w3.org/2000/svg" viewBox="0 0 300 300"><!----> <!----> <rect data-v-1084b650="" fill="#ffffff" x="0" y="0" width="300px" height="300px" class="logo-background-square"></rect> <!----> <g data-v-1084b650="" id="2e4acf7f-a7e0-2101-fb83-e643dcebaf20" fill="#000000" transform="matrix(2.8,0,0,2.8,33.64599995017052,166.1546077013016)"><path d="M9.62 11.73L9.62 11.73Q9.66 11.82 9.66 11.91L9.66 11.91L9.66 11.91Q9.66 12.08 9.53 12.21L9.53 12.21L9.53 12.21Q9.41 12.33 9.24 12.33L9.24 12.33L9.24 12.33Q8.96 12.33 8.85 12.07L8.85 12.07L7.81 9.59L2.11 9.59L1.08 12.07L1.08 12.07Q0.98 12.33 0.69 12.33L0.69 12.33L0.69 12.33Q0.49 12.33 0.38 12.21L0.38 12.21L0.38 12.21Q0.27 12.08 0.27 11.91L0.27 11.91L0.27 11.91Q0.27 11.82 0.31 11.73L0.31 11.73L4.55 1.69L4.55 1.69Q4.66 1.40 4.96 1.40L4.96 1.40L4.96 1.40Q5.24 1.40 5.36 1.69L5.36 1.69L9.62 11.73ZM2.44 8.83L7.49 8.83L4.96 2.79L2.44 8.83ZM14.53 2.16L14.53 2.16Q13.51 2.16 13.05 2.83L13.05 2.83L13.05 2.83Q12.59 3.51 12.59 4.66L12.59 4.66L12.59 4.96L14.43 4.96L14.43 4.96Q14.60 4.96 14.71 5.06L14.71 5.06L14.71 5.06Q14.81 5.17 14.81 5.33L14.81 5.33L14.81 5.33Q14.81 5.50 14.71 5.61L14.71 5.61L14.71 5.61Q14.60 5.71 14.43 5.71L14.43 5.71L12.59 5.71L12.59 11.91L12.59 11.91Q12.59 12.10 12.47 12.21L12.47 12.21L12.47 12.21Q12.35 12.33 12.15 12.33L12.15 12.33L12.15 12.33Q11.97 12.33 11.85 12.21L11.85 12.21L11.85 12.21Q11.73 12.10 11.73 11.91L11.73 11.91L11.73 5.71L10.64 5.71L10.64 5.71Q10.47 5.71 10.37 5.61L10.37 5.61L10.37 5.61Q10.26 5.50 10.26 5.33L10.26 5.33L10.26 5.33Q10.26 5.17 10.37 5.06L10.37 5.06L10.37 5.06Q10.47 4.96 10.64 4.96L10.64 4.96L11.73 4.96L11.73 4.66L11.73 4.66Q11.73 3.16 12.43 2.28L12.43 2.28L12.43 2.28Q13.13 1.40 14.53 1.40L14.53 1.40L14.53 1.40Q14.71 1.40 14.83 1.50L14.83 1.50L14.83 1.50Q14.95 1.61 14.95 1.78L14.95 1.78L14.95 1.78Q14.95 1.95 14.83 2.05L14.83 2.05L14.83 2.05Q14.71 2.16 14.53 2.16L14.53 2.16ZM19.67 11.48L19.67 11.48Q19.87 11.48 19.99 11.60L19.99 11.60L19.99 11.60Q20.10 11.72 20.10 11.91L20.10 11.91L20.10 11.91Q20.10 12.10 19.99 12.21L19.99 12.21L19.99 12.21Q19.87 12.33 19.67 12.33L19.67 12.33L19.35 12.33L19.35 12.33Q18.58 12.33 17.98 11.98L17.98 11.98L17.98 11.98Q17.37 11.63 17.04 11.03L17.04 11.03L17.04 11.03Q16.70 10.42 16.70 9.65L16.70 9.65L16.70 5.71L15.61 5.71L15.61 5.71Q15.44 5.71 15.34 5.61L15.34 5.61L15.34 5.61Q15.23 5.50 15.23 5.33L15.23 5.33L15.23 5.33Q15.23 5.17 15.34 5.06L15.34 5.06L15.34 5.06Q15.44 4.96 15.61 4.96L15.61 4.96L16.70 4.96L16.70 2.67L16.70 2.67Q16.70 2.48 16.82 2.36L16.82 2.36L16.82 2.36Q16.94 2.24 17.12 2.24L17.12 2.24L17.12 2.24Q17.32 2.24 17.44 2.36L17.44 2.36L17.44 2.36Q17.56 2.48 17.56 2.67L17.56 2.67L17.56 4.96L19.40 4.96L19.40 4.96Q19.57 4.96 19.68 5.06L19.68 5.06L19.68 5.06Q19.78 5.17 19.78 5.33L19.78 5.33L19.78 5.33Q19.78 5.50 19.68 5.61L19.68 5.61L19.68 5.61Q19.57 5.71 19.40 5.71L19.40 5.71L17.56 5.71L17.56 9.65L17.56 9.65Q17.56 10.46 18.06 10.97L18.06 10.97L18.06 10.97Q18.56 11.48 19.36 11.48L19.36 11.48L19.67 11.48ZM25.03 4.61L25.03 4.61Q26.05 4.61 26.86 5.09L26.86 5.09L26.86 5.09Q27.66 5.57 28.11 6.43L28.11 6.43L28.11 6.43Q28.56 7.28 28.56 8.37L28.56 8.37L28.56 8.37Q28.56 8.55 28.45 8.66L28.45 8.66L28.45 8.66Q28.34 8.76 28.15 8.76L28.15 8.76L22.29 8.76L22.29 8.76Q22.33 9.59 22.72 10.24L22.72 10.24L22.72 10.24Q23.11 10.89 23.77 11.26L23.77 11.26L23.77 11.26Q24.43 11.62 25.24 11.62L25.24 11.62L25.24 11.62Q25.79 11.62 26.34 11.43L26.34 11.43L26.34 11.43Q26.89 11.24 27.22 10.93L27.22 10.93L27.22 10.93Q27.36 10.82 27.51 10.82L27.51 10.82L27.51 10.82Q27.66 10.82 27.76 10.91L27.76 10.91L27.76 10.91Q27.92 11.03 27.92 11.20L27.92 11.20L27.92 11.20Q27.92 11.34 27.79 11.47L27.79 11.47L27.79 11.47Q27.34 11.87 26.62 12.14L26.62 12.14L26.62 12.14Q25.90 12.40 25.24 12.40L25.24 12.40L25.24 12.40Q24.14 12.40 23.28 11.91L23.28 11.91L23.28 11.91Q22.41 11.41 21.92 10.52L21.92 10.52L21.92 10.52Q21.43 9.63 21.43 8.51L21.43 8.51L21.43 8.51Q21.43 7.38 21.89 6.49L21.89 6.49L21.89 6.49Q22.34 5.60 23.16 5.10L23.16 5.10L23.16 5.10Q23.98 4.61 25.03 4.61L25.03 4.61ZM25.03 5.39L25.03 5.39Q23.94 5.39 23.19 6.12L23.19 6.12L23.19 6.12Q22.44 6.85 22.30 8.04L22.30 8.04L27.75 8.04L27.75 8.04Q27.65 6.85 26.91 6.12L26.91 6.12L26.91 6.12Q26.17 5.39 25.03 5.39L25.03 5.39ZM33.63 4.59L33.63 4.59Q34.69 4.59 34.69 5.05L34.69 5.05L34.69 5.05Q34.69 5.12 34.68 5.17L34.68 5.17L34.68 5.17Q34.64 5.32 34.55 5.38L34.55 5.38L34.55 5.38Q34.45 5.45 34.30 5.45L34.30 5.45L34.30 5.45Q34.17 5.45 33.97 5.42L33.97 5.42L33.97 5.42Q33.77 5.39 33.63 5.39L33.63 5.39L33.63 5.39Q32.93 5.39 32.38 5.68L32.38 5.68L32.38 5.68Q31.84 5.98 31.53 6.50L31.53 6.50L31.53 6.50Q31.22 7.01 31.22 7.66L31.22 7.66L31.22 11.91L31.22 11.91Q31.22 12.10 31.11 12.21L31.11 12.21L31.11 12.21Q31.00 12.33 30.80 12.33L30.80 12.33L30.80 12.33Q30.62 12.33 30.50 12.21L30.50 12.21L30.50 12.21Q30.38 12.10 30.38 11.91L30.38 11.91L30.38 5.10L30.38 5.10Q30.38 4.90 30.50 4.79L30.50 4.79L30.50 4.79Q30.62 4.68 30.80 4.68L30.80 4.68L30.80 4.68Q31.00 4.68 31.11 4.79L31.11 4.79L31.11 4.79Q31.22 4.90 31.22 5.10L31.22 5.10L31.22 5.96L31.22 5.96Q31.63 5.32 32.26 4.96L32.26 4.96L32.26 4.96Q32.89 4.59 33.63 4.59L33.63 4.59ZM48.66 1.82L48.66 1.82Q48.66 1.64 48.78 1.52L48.78 1.52L48.78 1.52Q48.90 1.40 49.08 1.40L49.08 1.40L49.08 1.40Q49.25 1.40 49.38 1.52L49.38 1.52L49.38 1.52Q49.50 1.64 49.50 1.82L49.50 1.82L49.50 11.91L49.50 11.91Q49.50 12.10 49.38 12.21L49.38 12.21L49.38 12.21Q49.25 12.33 49.08 12.33L49.08 12.33L49.08 12.33Q48.90 12.33 48.78 12.21L48.78 12.21L48.78 12.21Q48.66 12.10 48.66 11.91L48.66 11.91L48.66 7.20L41.59 7.20L41.59 11.91L41.59 11.91Q41.59 12.10 41.48 12.21L41.48 12.21L41.48 12.21Q41.36 12.33 41.17 12.33L41.17 12.33L41.17 12.33Q40.99 12.33 40.87 12.21L40.87 12.21L40.87 12.21Q40.75 12.10 40.75 11.91L40.75 11.91L40.75 1.82L40.75 1.82Q40.75 1.64 40.87 1.52L40.87 1.52L40.87 1.52Q40.99 1.40 41.17 1.40L41.17 1.40L41.17 1.40Q41.36 1.40 41.48 1.52L41.48 1.52L41.48 1.52Q41.59 1.64 41.59 1.82L41.59 1.82L41.59 6.44L48.66 6.44L48.66 1.82ZM55.66 4.59L55.66 4.59Q56.76 4.59 57.65 5.10L57.65 5.10L57.65 5.10Q58.55 5.61 59.06 6.51L59.06 6.51L59.06 6.51Q59.57 7.41 59.57 8.51L59.57 8.51L59.57 8.51Q59.57 9.60 59.06 10.50L59.06 10.50L59.06 10.50Q58.55 11.40 57.65 11.91L57.65 11.91L57.65 11.91Q56.76 12.42 55.66 12.42L55.66 12.42L55.66 12.42Q54.56 12.42 53.66 11.91L53.66 11.91L53.66 11.91Q52.77 11.40 52.25 10.50L52.25 10.50L52.25 10.50Q51.74 9.60 51.74 8.51L51.74 8.51L51.74 8.51Q51.74 7.41 52.25 6.51L52.25 6.51L52.25 6.51Q52.77 5.61 53.66 5.10L53.66 5.10L53.66 5.10Q54.56 4.59 55.66 4.59L55.66 4.59ZM55.66 5.38L55.66 5.38Q54.80 5.38 54.10 5.79L54.10 5.79L54.10 5.79Q53.40 6.20 52.99 6.92L52.99 6.92L52.99 6.92Q52.58 7.63 52.58 8.51L52.58 8.51L52.58 8.51Q52.58 9.39 52.99 10.11L52.99 10.11L52.99 10.11Q53.40 10.82 54.10 11.23L54.10 11.23L54.10 11.23Q54.80 11.63 55.66 11.63L55.66 11.63L55.66 11.63Q56.53 11.63 57.23 11.23L57.23 11.23L57.23 11.23Q57.93 10.82 58.33 10.11L58.33 10.11L58.33 10.11Q58.73 9.39 58.73 8.51L58.73 8.51L58.73 8.51Q58.73 7.63 58.33 6.92L58.33 6.92L58.33 6.92Q57.93 6.20 57.23 5.79L57.23 5.79L57.23 5.79Q56.53 5.38 55.66 5.38L55.66 5.38ZM68.15 4.68L68.15 4.68Q68.35 4.68 68.46 4.79L68.46 4.79L68.46 4.79Q68.57 4.90 68.57 5.10L68.57 5.10L68.57 11.91L68.57 11.91Q68.57 12.10 68.46 12.21L68.46 12.21L68.46 12.21Q68.35 12.33 68.15 12.33L68.15 12.33L68.15 12.33Q67.97 12.33 67.85 12.21L67.85 12.21L67.85 12.21Q67.73 12.10 67.73 11.91L67.73 11.91L67.73 11.19L67.73 11.19Q67.26 11.77 66.57 12.10L66.57 12.10L66.57 12.10Q65.88 12.43 65.07 12.43L65.07 12.43L65.07 12.43Q64.05 12.43 63.24 12.01L63.24 12.01L63.24 12.01Q62.44 11.59 61.98 10.79L61.98 10.79L61.98 10.79Q61.53 9.98 61.53 8.86L61.53 8.86L61.53 5.10L61.53 5.10Q61.53 4.91 61.65 4.79L61.65 4.79L61.65 4.79Q61.77 4.68 61.95 4.68L61.95 4.68L61.95 4.68Q62.13 4.68 62.25 4.79L62.25 4.79L62.25 4.79Q62.37 4.91 62.37 5.10L62.37 5.10L62.37 8.86L62.37 8.86Q62.37 10.19 63.12 10.89L63.12 10.89L63.12 10.89Q63.87 11.59 65.07 11.59L65.07 11.59L65.07 11.59Q65.81 11.59 66.42 11.30L66.42 11.30L66.42 11.30Q67.03 11.02 67.38 10.51L67.38 10.51L67.38 10.51Q67.73 10.00 67.73 9.38L67.73 9.38L67.73 5.10L67.73 5.10Q67.73 4.90 67.85 4.79L67.85 4.79L67.85 4.79Q67.97 4.68 68.15 4.68L68.15 4.68ZM74.34 4.59L74.34 4.59Q75.40 4.59 75.40 5.05L75.40 5.05L75.40 5.05Q75.40 5.12 75.39 5.17L75.39 5.17L75.39 5.17Q75.35 5.32 75.26 5.38L75.26 5.38L75.26 5.38Q75.17 5.45 75.01 5.45L75.01 5.45L75.01 5.45Q74.89 5.45 74.68 5.42L74.68 5.42L74.68 5.42Q74.48 5.39 74.34 5.39L74.34 5.39L74.34 5.39Q73.64 5.39 73.09 5.68L73.09 5.68L73.09 5.68Q72.55 5.98 72.24 6.50L72.24 6.50L72.24 6.50Q71.93 7.01 71.93 7.66L71.93 7.66L71.93 11.91L71.93 11.91Q71.93 12.10 71.82 12.21L71.82 12.21L71.82 12.21Q71.71 12.33 71.51 12.33L71.51 12.33L71.51 12.33Q71.33 12.33 71.21 12.21L71.21 12.21L71.21 12.21Q71.09 12.10 71.09 11.91L71.09 11.91L71.09 5.10L71.09 5.10Q71.09 4.90 71.21 4.79L71.21 4.79L71.21 4.79Q71.33 4.68 71.51 4.68L71.51 4.68L71.51 4.68Q71.71 4.68 71.82 4.79L71.82 4.79L71.82 4.79Q71.93 4.90 71.93 5.10L71.93 5.10L71.93 5.96L71.93 5.96Q72.34 5.32 72.97 4.96L72.97 4.96L72.97 4.96Q73.60 4.59 74.34 4.59L74.34 4.59ZM79.84 4.59L79.84 4.59Q81.61 4.59 82.52 5.85L82.52 5.85L82.52 5.85Q82.60 5.95 82.60 6.09L82.60 6.09L82.60 6.09Q82.60 6.29 82.38 6.41L82.38 6.41L82.38 6.41Q82.24 6.47 82.17 6.47L82.17 6.47L82.17 6.47Q81.96 6.47 81.82 6.29L81.82 6.29L81.82 6.29Q81.10 5.38 79.81 5.38L79.81 5.38L79.81 5.38Q78.96 5.38 78.46 5.75L78.46 5.75L78.46 5.75Q77.95 6.12 77.95 6.66L77.95 6.66L77.95 6.66Q77.95 7.22 78.44 7.56L78.44 7.56L78.44 7.56Q78.92 7.90 80.05 8.06L80.05 8.06L80.05 8.06Q81.54 8.27 82.19 8.86L82.19 8.86L82.19 8.86Q82.84 9.44 82.84 10.26L82.84 10.26L82.84 10.26Q82.84 10.91 82.42 11.40L82.42 11.40L82.42 11.40Q82.01 11.89 81.33 12.15L81.33 12.15L81.33 12.15Q80.64 12.42 79.83 12.42L79.83 12.42L79.83 12.42Q79.02 12.42 78.25 12.13L78.25 12.13L78.25 12.13Q77.48 11.84 76.97 11.26L76.97 11.26L76.97 11.26Q76.87 11.14 76.87 11.00L76.87 11.00L76.87 11.00Q76.87 10.81 77.06 10.68L77.06 10.68L77.06 10.68Q77.14 10.61 77.29 10.61L77.29 10.61L77.29 10.61Q77.49 10.61 77.62 10.77L77.62 10.77L77.62 10.77Q78.32 11.62 79.87 11.62L79.87 11.62L79.87 11.62Q80.98 11.62 81.50 11.23L81.50 11.23L81.50 11.23Q82.03 10.84 82.03 10.22L82.03 10.22L82.03 10.22Q82.03 9.11 79.88 8.81L79.88 8.81L79.88 8.81Q78.53 8.61 77.83 8.06L77.83 8.06L77.83 8.06Q77.14 7.52 77.14 6.75L77.14 6.75L77.14 6.75Q77.14 5.73 77.89 5.16L77.89 5.16L77.89 5.16Q78.64 4.59 79.84 4.59L79.84 4.59Z"></path></g> <linearGradient data-v-1084b650="" gradientTransform="rotate(25)" id="2ea8edcd-6641-7b15-940f-2696565b4b8a" x1="0%" y1="0%" x2="100%" y2="0%"><stop data-v-1084b650="" offset="0%" style="stop-color: rgb(86, 63, 51); stop-opacity: 1;"></stop> <stop data-v-1084b650="" offset="100%" style="stop-color: rgb(163, 161, 161); stop-opacity: 1;"></stop></linearGradient> <g data-v-1084b650="" id="27ba9448-e808-f3bc-e17c-4972ec6c19ab" fill="url(#2ea8edcd-6641-7b15-940f-2696565b4b8a)" stroke="none" transform="matrix(0.21220663604579565,0,0,0.21220663604579565,118.20626898870344,98.0291484523967)"><svg xmlns="http://www.w3.org/2000/svg" viewBox="0 0 66 66"><path d="M34.4 44.8c-.1.1-.3.5-.4.6-.6 1.8-2.9 2.8-4.1 2.8-.7 1.1-.4 1.2-.5 1.7 1.3 1.7 1.7-.5 4.7-.4 2.7 0 2.8-.7 3.7-2 .4-.5.8-1.1 1.1-1.6-2.1-.7-3.5-.3-4.5-1.1zM28.7 49.5c0-.3 0-.6.3-1.1.1-.1.1-.2.2-.4-.4-.2-.6-.6-.6-1-1.9 0-2.3.1-3.5-.1 0 .6-.2 1.4-1.9 2.5 1.8 2.7 5.5 1 5.5.1zM23.7 47.1c.4-1.4-.4-1.2-.6-1.7-.7-.5-.9-.8-1-1.5h-.4c0 1.1 0 4.3.7 5 .9-.8 1.1-1.3 1.3-1.8zM22.7 43.8c.1.4.1.5.8 1.1 1.6 1.3 3.6 1.8 5.8 1.4.1-1 0-2.4-.7-3.7h-.2c-.7.3-2.1.5-3.4.1-.3.8-1.3 1-2.3 1.1zM37.2 41.5c-.6.1-1 0-1.6-.1-.2 0-.3-.1-.4-.1-1 .4-1.3 1.6-.8 2.4l.1.1c.4 1.2 2.4.6 4.6 1.4.5.1.8.1 1-.9-1.4-.1-3.1-1.1-2.9-2.8z"></path><path d="M32 42.2c-.6.1-2.2 0-2.7-.4 0 .1-.1.1-.2.2.6 1.2 1 2.6.9 4v.4c0 .2-.2 1-.2 1.1 3.3 0 5.1-3.8 2.2-5.3zM32.3 21.8c-.2-.3-1.4-.8-2.6-.2-.9.5-1.4 1.3-1.4 2.3 0 0 2.6 9.5 1.6 13.5-.3 1.1-.4 1.8-.5 2.4.2.6.3 1 .2 1.4.3.2.8.2 1.4.3.9.1 3.2.2 1.7-3.2-1.3-2.9.6-14.2.6-14.5.1-.8-.4-1.6-1-2z"></path><path d="M29.7 8.3c-1.1-.3-2.7.2-2.5 1.3 0 .2 2.2 5.8.4 10.3-.3.8.5 1.6 1 1.8 1-1 2.5-1.2 3.8-.6.4-.3.7-1.3.5-1.8-.5-1.3-2.7-5.4-1.9-8.5.3-1.5-.4-2.3-1.3-2.5zM27.8 7.7c.9-.4 1.8-.1 1.9-.1.5-.2.8-.7.8-1.1C30.5 6 29 4.9 29 2c0-1.7-2.3-1.1-1.9.3.9 3.1-1.4 4.7.7 5.4zM33.8 50.1c-2.5 0-3.2 2.2-4.9.3-.1.1-.3.2-.4.4-.3.8.1 1.7.3 2.4 1.6 4.3 3.9 5.4 2.3 11.7h3.1s-.6-4.1 1.4-8.3c1.4-3 .7-5.4 0-6.7-.7.2-1.5.2-1.8.2z"></path><path d="M23.5 50.8c-1 8.5.9 14.2.9 14.2h2.2c-2.1-11.5 2.7-11 1.5-13.9-1.2.7-3.2.8-4.6-.3zM35.8 27.2c.1 3.2 0 6.7-.7 8.8-.6 1.7-.9 2.8-.9 3.4-.1 1.2.6 1.1 1.6 1.4 1.9.4 3-.3 2.1-3.4-.6-2.4.7-8.9 1.7-13V24c.1-.9-.6-1.9-1.7-2.3-.8-.3-2.6.2-3.5 2.1-.3 2-.4 3.2-.7 5.4.6-.6 1.3-1.4 2.1-2zM22.6 33.8c0 .1.1.3.1.4.5.2 1 .5 1.4.8l-.6-2.4c-1-.7-1.4-1.4-2-1.7.3.3 1.1 1.9 1.1 2.9zM23 43.1c.8-.1 2.9-.5.8-3.3-.7-1-2-7.3-2.7-8.4-.8-1.3-2.8-.3-2.3 1.2 0 .1 2.3 5.2 2.3 7 0 4.2.4 3.7 1.9 3.5zM23.3 28.5c.1.2 2.2 5.2 2.2 7-.1 4.2.4 3.6 1.8 3.5.8-.1 2.9-.4.9-3.2-.7-1-1.8-7.3-2.5-8.4-.6-.9-2-.8-2.4.3-.1.2-.1.5 0 .8zM27.5 31.2c.6.4 1.1.8 1.5 1.2-.1-.9-.3-1.9-.4-2.8-1.2-1.3-1.3-1.9-2.2-2.5.4.8.4 1 1.1 4.1zM27.2 42.1c1.8-.1 2.2-1 1.4-2.7-.5.2-2.4.7-3.1.1-.1 3 .4 2.6 1.7 2.6z"></path><path d="M38.7 34.9c2.3-.9 2.7-.9 4-1.1-.5-1 .1-3.3 1.7-4.3-2.1.3-2.8 1.7-5.5 2.7 0 1.1-.1 2-.2 2.7z"></path><path d="M47.2 31.1c-.9-2.9-4.6-.1-3.7 2.4-.8 2.3-2.7 4.3-4.6 5.9-.1.1 0 1.2-1 1.8-.2.8.1 1.8 1.6 2.3 3.4 1.2 4.2-3.7 4.2-3.7s1.1-3.7 2.6-6.1c.2-.4.7-1 .8-1.1 0 0 .1-.4.2-.6 0-.3 0-.6-.1-.9z"></path></svg></g></svg>