<svg data-v-1084b650="" xmlns="http://www.w3.org/2000/svg" viewBox="0 0 300 300"><!----> <!----> <rect data-v-1084b650="" fill="#ffffff" x="0" y="0" width="300px" height="300px" class="logo-background-square"></rect> <!----> <linearGradient data-v-1084b650="" gradientTransform="rotate(25)" id="09d1fbae-e4c6-f188-cf0c-704d20cbd7e5" x1="0%" y1="0%" x2="100%" y2="0%"><stop data-v-1084b650="" offset="0%" style="stop-color: rgb(86, 63, 51); stop-opacity: 1;"></stop> <stop data-v-1084b650="" offset="100%" style="stop-color: rgb(163, 161, 161); stop-opacity: 1;"></stop></linearGradient> <g data-v-1084b650="" id="77581da0-05c6-7123-0959-63fe96e5471f" fill="url(#09d1fbae-e4c6-f188-cf0c-704d20cbd7e5)" stroke="none" transform="matrix(0.7999999999999998,0,0,0.7999999999999998,30.001083374023466,29.99931640625003)"><svg xmlns="http://www.w3.org/2000/svg" xmlns:xlink="http://www.w3.org/1999/xlink" version="1.1" x="0px" y="0px" viewBox="0 0 100 100" enable-background="new 0 0 100 100" xml:space="preserve"><g><g><path d="M45.281,59.364c-0.002-0.001-0.003-0.028-0.004-0.052c-0.001-0.01-0.001-0.02-0.003-0.027    c-0.831-2.186-2.251-3.929-4.219-5.181c-2.449-1.557-5.226-2.167-8.255-1.819c-3.899,0.453-6.941,2.204-9.041,5.204    c-0.938,1.342-1.381,2.503-1.431,3.758c0.006,0.06,0.011,0.125,0.016,0.193c0.012,0.16,0.024,0.343,0.063,0.521    c0.448,2.052,1.389,3.979,2.876,5.892c0.928,1.193,1.879,2.059,2.423,2.205c0.167,0.044,0.385,0.033,0.612,0.017    c5.494-0.401,10.255-2.64,13.818-6.424C43.323,62.39,44.377,60.957,45.281,59.364z"></path><path fill="none" d="M50.258,85.852c0.003-0.011-0.067-0.034-0.252-0.046c-0.003,0-0.006,0-0.01,0    c-0.164,0-0.258,0.035-0.279,0.052c0.008,0.079,0.027,0.151,0.007,0.228c-0.464,1.77-0.23,2.764,0.018,3.817    c0.104,0.44,0.208,0.886,0.258,1.378c0.05-0.492,0.155-0.938,0.258-1.378c0.248-1.053,0.482-2.047,0.018-3.817    C50.256,86.01,50.25,85.93,50.258,85.852z"></path><path fill="none" d="M50.193,66.797c-0.704,1.359-2.24,4.537-2.805,6.985c-0.325,1.409-0.546,2.44-0.696,3.196    c1.723-2.449,2.526-3.516,3.014-3.761c0.124-0.063,0.245-0.098,0.371-0.098c0.683,0,1.497,1.044,3.637,4.422    c0.065-0.835-0.066-2.252-0.925-4.842C51.662,69.305,50.719,67.551,50.193,66.797z"></path><path fill="none" d="M67.2,52.285c-0.553-0.064-1.097-0.096-1.632-0.096c-2.399,0-4.62,0.641-6.622,1.915    c-1.97,1.252-3.39,2.996-4.221,5.185c-0.004,0.017-0.003,0.072,0.005,0.095c3.597,6.339,9.473,10.048,16.981,10.702    c0.233,0.019,0.439,0.033,0.579-0.016c0.109-0.038,0.236-0.134,0.368-0.236c2.461-1.933,4.26-4.803,4.935-7.874    c0.039-0.179,0.051-0.363,0.064-0.523c0.005-0.067,0.01-0.131,0.016-0.19c-0.05-1.255-0.493-2.416-1.431-3.758    C74.141,54.49,71.099,52.739,67.2,52.285z"></path><path fill="none" d="M78.921,22.575c-4.72-7.976-11.744-13.085-20.873-15.184c-2.646-0.608-5.363-0.972-8.075-1.083    c-2.658,0.111-5.375,0.476-8.022,1.083c-9.129,2.1-16.152,7.208-20.873,15.185c-2.543,4.298-4.036,9.36-4.699,15.931    c-0.349,3.453-0.321,6.96,0.084,10.426c0.311,2.67,0.83,5.123,1.577,7.442c0.005-0.019,0.011-0.038,0.016-0.058    c0.353-1.259,0.778-2.575,1.298-4.022c0.185-0.515,0.54-0.943,0.887-1.34c0.297-0.341,0.967-0.452,1.378-0.225    c0.399,0.229,0.574,0.77,0.541,1.165c-0.018,0.252-0.107,0.474-0.179,0.653c-0.028,0.07-0.057,0.14-0.077,0.211l-0.038,0.137    c-1.168,4.181-2.375,8.505-2.684,12.904c-0.18,2.552-0.025,4.585,0.489,6.399c0.976,3.447,3.196,5.136,6.787,5.162    c0.03,0,0.059,0.001,0.089,0.001c1.765,0,3.46-0.4,5.03-0.834c0.186-0.05,0.465-0.128,0.781-0.049    c0.355,0.086,0.59,0.326,0.755,0.525c1.114,1.34,1.252,3.029,1.375,4.518l0.035,0.419c0.089,1.016,0.413,1.756,0.916,2.491    c0.024,0.001,0.049,0.003,0.074,0.006c0.658,0.077,0.609,0.757,0.582,1.123c-0.005,0.072-0.023,0.141-0.05,0.205    c-0.009,0.021-0.024,0.039-0.036,0.059c-0.021,0.037-0.039,0.076-0.066,0.109c-0.111,1.147-0.115,3.454,0.824,4.703    c0.216,0.286,0.467,0.494,0.76,0.626c0.153-0.993,0.122-2.104,0.095-3.107c-0.047-1.724-0.088-3.214,0.71-4.05    c0.356-0.373,0.835-0.568,1.423-0.578c0.964-0.025,1.315,0.272,1.439,1.239l0.011,0.078c0.029,0.217,0.062,0.463,0.027,0.731    c-0.118,0.879-0.229,1.664-0.328,2.366c-0.4,2.837-0.642,4.55-0.27,5.005c0.193,0.236,0.82,0.316,1.544,0.366l-0.015-0.249    c-0.036-0.618-0.074-1.257-0.146-1.872c-0.067-0.568-0.151-1.097-0.229-1.588c-0.338-2.125-0.63-3.959,1.402-5.022    c0.479-0.252,0.938-0.183,1.324,0.201c1.132,1.118,1.031,1.852,0.809,3.462c-0.148,1.072-0.366,2.652-0.396,5.263    c0.331,0.022,0.668,0.05,0.997,0.078c0.799,0.068,2.113,0.18,2.472,0.024c0.518-1.505,0.311-2.388,0.071-3.407    c-0.257-1.09-0.546-2.323-0.036-4.348c-0.009-0.423,0.165-0.71,0.32-0.881c0.284-0.313,0.717-0.468,1.254-0.478    c0.007,0,0.014,0,0.021,0c0.504,0,0.941,0.169,1.222,0.477c0.155,0.171,0.329,0.458,0.32,0.882    c0.511,2.024,0.221,3.258-0.036,4.348c-0.24,1.019-0.447,1.901,0.071,3.407c0.358,0.157,1.673,0.045,2.472-0.024    c0.329-0.027,0.666-0.056,0.997-0.078c-0.03-2.611-0.249-4.192-0.396-5.263c-0.222-1.61-0.323-2.344,0.81-3.464    c0.385-0.382,0.843-0.451,1.323-0.199c2.031,1.064,1.739,2.898,1.401,5.022c-0.078,0.491-0.163,1.02-0.229,1.588    c-0.073,0.617-0.11,1.259-0.146,1.88l-0.014,0.241c0.726-0.05,1.351-0.13,1.544-0.366c0.372-0.455,0.13-2.168-0.27-5.005    c-0.099-0.702-0.209-1.487-0.327-2.364c-0.035-0.272-0.002-0.518,0.027-0.736l0.01-0.076c0.124-0.965,0.44-1.273,1.438-1.238    c0.589,0.011,1.068,0.205,1.424,0.578c0.799,0.836,0.758,2.325,0.71,4.05c-0.027,1.004-0.058,2.119,0.096,3.113    c0.338-0.146,0.622-0.383,0.859-0.72c0.976-1.384,0.87-3.933,0.561-5.309c-0.075-0.332,0.117-0.666,0.442-0.768    c0.093-0.029,0.189-0.035,0.28-0.025c0.628-0.758,0.813-1.946,0.905-3.046l0.007-0.081c0.125-1.484,0.266-3.166,1.4-4.351    c0.143-0.15,0.371-0.361,0.691-0.461c0.631-0.196,1.452,0.081,2.246,0.352c0.293,0.099,0.569,0.193,0.743,0.226    c0.989,0.19,1.96,0.279,2.935,0.275c3.591-0.027,5.811-1.715,6.787-5.162c0.514-1.814,0.669-3.848,0.489-6.399    c-0.309-4.399-1.516-8.723-2.684-12.904l-0.039-0.139c-0.019-0.07-0.049-0.14-0.077-0.21c-0.072-0.178-0.16-0.4-0.179-0.659    c-0.031-0.389,0.144-0.929,0.532-1.152c0.418-0.231,1.09-0.122,1.389,0.222c0.346,0.394,0.701,0.825,0.886,1.338    c0.522,1.451,0.947,2.766,1.298,4.022c0.005,0.02,0.011,0.04,0.016,0.059c0.746-2.314,1.266-4.771,1.577-7.444    c0.404-3.465,0.433-6.973,0.084-10.427C82.957,31.935,81.464,26.873,78.921,22.575z M37.727,68.705    c-2.774,1.515-5.912,2.427-9.313,2.675c-0.134,0.01-0.272,0.019-0.413,0.019c-0.206,0-0.418-0.018-0.634-0.076    c-1.148-0.309-2.445-1.803-3.117-2.666c-1.609-2.07-2.63-4.169-3.121-6.415c-0.055-0.254-0.074-0.501-0.089-0.701    c-0.006-0.072-0.011-0.139-0.017-0.199c-0.004-0.031-0.005-0.063-0.004-0.094c0.05-1.54,0.565-2.931,1.669-4.509    c2.324-3.32,5.676-5.255,9.962-5.754c3.336-0.388,6.4,0.291,9.108,2.015c1.937,1.231,3.401,2.885,4.362,4.927    c0.009,0.019,0.016,0.039,0.025,0.059c0.127,0.273,0.247,0.552,0.356,0.838c0,0,0,0.001,0,0.001c0,0,0,0.001,0,0.001    c0.085,0.221,0.099,0.484,0.061,0.732c-0.025,0.163-0.067,0.321-0.141,0.452C44.261,63.815,41.294,66.758,37.727,68.705z     M54.771,78.866c-0.012,0.036-0.024,0.076-0.035,0.113c-0.004,0.014-0.006,0.022-0.009,0.034    c-0.007,0.024-0.013,0.045-0.015,0.059c0.004,0.024,0,0.048,0.001,0.073c0.042,0.29-0.112,0.573-0.387,0.691    c-0.125,0.054-0.227,0.086-0.323,0.086c-0.331,0-0.579-0.392-1.392-1.676c-0.595-0.94-1.895-2.992-2.524-3.656    c-0.539,0.603-1.704,2.261-2.374,3.214c-0.723,1.028-1.11,1.575-1.311,1.781c-0.311,0.32-0.669,0.298-0.902,0.173    c-0.524-0.286-0.741-0.404,0.612-6.269c0.778-3.367,3.188-7.835,3.343-8.067c0.153-0.229,0.419-0.349,0.699-0.311    c1.153,0.156,2.759,3.81,3.877,7.178C55.481,76.655,55.019,78.093,54.771,78.866z M78.982,61.248c0.001,0.031,0,0.063-0.004,0.093    c-0.007,0.059-0.012,0.126-0.017,0.197c-0.015,0.2-0.034,0.449-0.09,0.704c-0.738,3.361-2.708,6.505-5.405,8.622    c-0.214,0.168-0.448,0.34-0.749,0.444c-0.233,0.081-0.46,0.105-0.685,0.105c-0.144,0-0.289-0.01-0.434-0.023    c-7.845-0.684-14.243-4.726-18.017-11.381c-0.187-0.329-0.221-0.817-0.08-1.185c0.934-2.458,2.529-4.418,4.743-5.825    c2.708-1.724,5.772-2.402,9.108-2.015h0c3.75,0.436,6.785,1.973,9.042,4.574c0.322,0.372,0.629,0.765,0.919,1.18    C78.417,58.317,78.932,59.708,78.982,61.248z"></path><path d="M46.561,59.558c0.037-0.248,0.023-0.511-0.061-0.732c0,0,0-0.001,0-0.001c0-0.001,0-0.001,0-0.001    c-0.109-0.287-0.229-0.565-0.356-0.839c-0.009-0.019-0.016-0.04-0.025-0.059c-0.961-2.041-2.425-3.696-4.362-4.927    c-2.709-1.724-5.772-2.403-9.108-2.015c-4.286,0.499-7.638,2.434-9.962,5.754c-1.104,1.578-1.618,2.969-1.669,4.509    c-0.001,0.031,0,0.063,0.004,0.094c0.007,0.061,0.012,0.128,0.017,0.199c0.015,0.199,0.034,0.447,0.089,0.701    c0.491,2.247,1.512,4.345,3.121,6.415c0.671,0.863,1.969,2.357,3.117,2.666c0.216,0.058,0.428,0.076,0.634,0.076    c0.141,0,0.279-0.008,0.413-0.019c3.401-0.248,6.538-1.16,9.313-2.675c3.567-1.947,6.535-4.89,8.693-8.695    C46.494,59.879,46.536,59.721,46.561,59.558z M27.706,70.058c-0.544-0.146-1.495-1.012-2.423-2.205    c-1.487-1.913-2.428-3.84-2.876-5.892c-0.039-0.178-0.051-0.361-0.063-0.521c-0.005-0.068-0.011-0.133-0.016-0.193    c0.05-1.255,0.493-2.416,1.431-3.758c2.1-3,5.142-4.751,9.041-5.204c3.029-0.348,5.806,0.262,8.255,1.819    c1.968,1.251,3.388,2.994,4.219,5.181c0.002,0.007,0.002,0.017,0.003,0.027c0.002,0.025,0.002,0.051,0.004,0.052    c-0.904,1.593-1.958,3.026-3.145,4.287c-3.562,3.783-8.324,6.023-13.818,6.424C28.091,70.091,27.872,70.102,27.706,70.058z"></path><path d="M84.923,38.375c-0.684-6.767-2.233-11.999-4.875-16.466l0-0.001c-4.91-8.297-12.214-13.61-21.707-15.794    C55.616,5.49,52.819,5.114,49.973,5c-2.792,0.114-5.589,0.49-8.315,1.115c-9.492,2.183-16.796,7.497-21.707,15.794    c-2.643,4.467-4.192,9.699-4.875,16.466c-0.358,3.547-0.329,7.15,0.087,10.709c0.414,3.555,1.187,6.744,2.365,9.748    c0.048,0.123,0.11,0.216,0.16,0.291l0.039,0.06c0.143,0.233,0.416,0.352,0.684,0.299c0.268-0.053,0.475-0.267,0.52-0.536    c0.043-0.263,0.079-0.525,0.115-0.782c0.072-0.529,0.141-1.028,0.271-1.494c0.308-1.097,0.672-2.242,1.11-3.483    c-1.127,4.044-2.247,8.218-2.549,12.52c-0.191,2.707-0.021,4.883,0.535,6.848c1.141,4.026,3.845,6.083,8.037,6.115    c0.034,0,0.067,0.001,0.1,0.001c1.92,0,3.718-0.423,5.376-0.881c0.029-0.008,0.076-0.021,0.112-0.029    c0.016,0.016,0.038,0.041,0.07,0.079c0.851,1.023,0.961,2.367,1.077,3.789l0.036,0.426c0.13,1.492,0.669,2.516,1.447,3.542    c-0.106,0.95-0.318,4.002,1.055,5.828c0.564,0.75,1.314,1.186,2.23,1.297c0.324,0.035,0.629-0.167,0.712-0.484    c0.345-1.315,0.304-2.804,0.268-4.117c-0.036-1.312-0.073-2.669,0.349-3.11c0.069-0.072,0.195-0.168,0.5-0.174    c0.038-0.001,0.073-0.001,0.104-0.001c0.004,0.029,0.009,0.062,0.013,0.098l0.011,0.086c0.019,0.143,0.039,0.291,0.027,0.385    c-0.117,0.873-0.228,1.655-0.326,2.355c-0.525,3.724-0.722,5.118,0.013,6.016c0.557,0.681,1.497,0.787,2.768,0.863    c0.426,0.024,0.691-0.143,0.836-0.288c0.141-0.142,0.305-0.397,0.279-0.807l-0.034-0.555c-0.037-0.637-0.076-1.295-0.153-1.948    c-0.069-0.588-0.156-1.134-0.237-1.642c-0.329-2.069-0.428-2.98,0.604-3.593c0.572,0.585,0.543,0.801,0.341,2.261    c-0.164,1.19-0.412,2.989-0.412,6.064c0,0.353,0.281,0.643,0.634,0.654c0.5,0.016,1.038,0.062,1.565,0.107    c1.907,0.162,3.413,0.291,3.789-0.766c0.225-0.633,0.345-1.184,0.396-1.68c0.051,0.496,0.172,1.048,0.397,1.681    C50.642,94.815,51.369,95,52.375,95c0.535,0,1.148-0.052,1.81-0.109c0.526-0.045,1.065-0.091,1.565-0.107    c0.353-0.011,0.634-0.3,0.634-0.654c0-3.076-0.248-4.874-0.412-6.064c-0.199-1.447-0.23-1.672,0.344-2.262    c1.031,0.603,0.932,1.513,0.601,3.594c-0.081,0.507-0.168,1.054-0.237,1.642c-0.077,0.655-0.116,1.316-0.153,1.956l-0.033,0.547    c-0.026,0.409,0.138,0.665,0.279,0.807c0.144,0.145,0.407,0.318,0.838,0.288c1.268-0.076,2.209-0.182,2.766-0.863    c0.735-0.899,0.538-2.292,0.013-6.016c-0.098-0.7-0.209-1.482-0.326-2.352c-0.012-0.097,0.007-0.245,0.027-0.389l0.011-0.084    c0.005-0.036,0.009-0.068,0.013-0.098c0.031,0,0.066,0.001,0.104,0.001c0.305,0.006,0.432,0.102,0.5,0.174    c0.422,0.441,0.384,1.798,0.349,3.11c-0.036,1.313-0.077,2.801,0.268,4.117c0.083,0.316,0.382,0.519,0.712,0.484    c0.968-0.118,1.782-0.608,2.353-1.417c1.132-1.604,1.115-4.121,0.891-5.674c1.124-1.028,1.408-2.647,1.531-4.119l0.007-0.081    c0.112-1.33,0.227-2.706,1.042-3.556c0.091-0.096,0.129-0.114,0.134-0.116c0.232-0.072,1.044,0.207,1.436,0.341    c0.336,0.114,0.654,0.222,0.918,0.273c1.074,0.205,2.153,0.302,3.191,0.298c4.193-0.031,6.897-2.089,8.037-6.115    c0.556-1.965,0.726-4.14,0.535-6.848c-0.302-4.302-1.422-8.476-2.549-12.52c0.439,1.245,0.803,2.389,1.11,3.483    c0.13,0.467,0.199,0.968,0.272,1.498c0.035,0.257,0.071,0.516,0.114,0.779c0.044,0.269,0.252,0.483,0.519,0.536    c0.27,0.052,0.54-0.066,0.684-0.299l0.039-0.06c0.05-0.075,0.113-0.169,0.16-0.29c1.178-3.005,1.952-6.194,2.365-9.748    C85.252,45.526,85.281,41.923,84.923,38.375z M50.258,89.903c-0.103,0.44-0.208,0.886-0.258,1.378    c-0.05-0.492-0.155-0.938-0.258-1.378c-0.248-1.053-0.482-2.047-0.018-3.817c0.02-0.077,0.001-0.149-0.007-0.228    c0.022-0.017,0.115-0.052,0.279-0.052c0.003,0,0.006,0,0.01,0c0.185,0.012,0.255,0.035,0.252,0.046    c-0.008,0.079-0.002,0.158,0.018,0.235C50.74,87.857,50.506,88.851,50.258,89.903z M83.536,48.934    c-0.311,2.673-0.831,5.129-1.577,7.444c-0.005-0.02-0.011-0.04-0.016-0.059c-0.352-1.256-0.776-2.571-1.298-4.022    c-0.185-0.513-0.54-0.943-0.886-1.338c-0.299-0.344-0.971-0.453-1.389-0.222c-0.388,0.223-0.564,0.763-0.532,1.152    c0.019,0.259,0.107,0.481,0.179,0.659c0.028,0.07,0.058,0.139,0.077,0.21l0.039,0.139c1.168,4.181,2.375,8.505,2.684,12.904    c0.18,2.552,0.025,4.585-0.489,6.399c-0.976,3.447-3.196,5.136-6.787,5.162c-0.975,0.004-1.946-0.085-2.935-0.275    c-0.174-0.033-0.451-0.127-0.743-0.226c-0.794-0.27-1.615-0.548-2.246-0.352c-0.32,0.1-0.548,0.311-0.691,0.461    c-1.134,1.185-1.275,2.867-1.4,4.351l-0.007,0.081c-0.092,1.1-0.277,2.288-0.905,3.046c-0.09-0.01-0.187-0.004-0.28,0.025    c-0.324,0.102-0.516,0.436-0.442,0.768c0.309,1.376,0.416,3.926-0.561,5.309c-0.237,0.336-0.521,0.574-0.859,0.72    c-0.153-0.994-0.123-2.109-0.096-3.113c0.047-1.725,0.088-3.214-0.71-4.05c-0.356-0.373-0.835-0.568-1.424-0.578    c-0.998-0.035-1.314,0.273-1.438,1.238l-0.01,0.076c-0.029,0.218-0.063,0.465-0.027,0.736c0.118,0.877,0.229,1.661,0.327,2.364    c0.4,2.837,0.642,4.55,0.27,5.005c-0.193,0.236-0.817,0.316-1.544,0.366l0.014-0.241c0.036-0.621,0.074-1.262,0.146-1.88    c0.067-0.568,0.151-1.097,0.229-1.588c0.338-2.125,0.63-3.959-1.401-5.022c-0.48-0.251-0.938-0.183-1.323,0.199    c-1.134,1.12-1.033,1.854-0.81,3.464c0.148,1.072,0.366,2.652,0.396,5.263c-0.331,0.022-0.668,0.05-0.997,0.078    c-0.799,0.068-2.114,0.18-2.472,0.024c-0.518-1.505-0.31-2.388-0.071-3.407c0.257-1.09,0.547-2.323,0.036-4.348    c0.009-0.424-0.165-0.711-0.32-0.882c-0.28-0.308-0.717-0.477-1.222-0.477c-0.007,0-0.014,0-0.021,0    c-0.537,0.01-0.97,0.165-1.254,0.478c-0.155,0.171-0.329,0.458-0.32,0.881c-0.511,2.025-0.221,3.257,0.036,4.348    c0.24,1.019,0.448,1.901-0.071,3.407c-0.359,0.156-1.673,0.045-2.472-0.024c-0.329-0.027-0.666-0.056-0.997-0.078    c0.03-2.611,0.249-4.192,0.396-5.263c0.222-1.61,0.323-2.344-0.809-3.462c-0.386-0.385-0.845-0.453-1.324-0.201    c-2.032,1.064-1.74,2.898-1.402,5.022c0.078,0.491,0.163,1.02,0.229,1.588c0.072,0.616,0.11,1.254,0.146,1.872l0.015,0.249    c-0.724-0.05-1.351-0.13-1.544-0.366c-0.372-0.455-0.13-2.168,0.27-5.005c0.099-0.702,0.209-1.487,0.328-2.366    c0.035-0.268,0.002-0.514-0.027-0.731l-0.011-0.078c-0.124-0.967-0.475-1.264-1.439-1.239c-0.588,0.011-1.067,0.205-1.423,0.578    c-0.799,0.836-0.758,2.326-0.71,4.05c0.027,1.003,0.058,2.114-0.095,3.107c-0.293-0.132-0.545-0.34-0.76-0.626    c-0.939-1.249-0.934-3.556-0.824-4.703c0.027-0.033,0.045-0.072,0.066-0.109c0.011-0.02,0.027-0.037,0.036-0.059    c0.027-0.064,0.045-0.133,0.05-0.205c0.027-0.366,0.076-1.046-0.582-1.123c-0.025-0.003-0.05-0.005-0.074-0.006    c-0.503-0.735-0.828-1.475-0.916-2.491l-0.035-0.419c-0.122-1.489-0.26-3.178-1.375-4.518c-0.165-0.199-0.4-0.439-0.755-0.525    c-0.316-0.079-0.595-0.001-0.781,0.049c-1.57,0.434-3.264,0.834-5.03,0.834c-0.03,0-0.059-0.001-0.089-0.001    c-3.591-0.027-5.811-1.715-6.787-5.162c-0.514-1.814-0.669-3.848-0.489-6.399c0.309-4.399,1.516-8.723,2.684-12.904l0.038-0.137    c0.02-0.071,0.05-0.141,0.077-0.211c0.072-0.178,0.161-0.401,0.179-0.653c0.033-0.395-0.142-0.936-0.541-1.165    c-0.411-0.227-1.081-0.116-1.378,0.225c-0.347,0.396-0.702,0.825-0.887,1.34c-0.521,1.447-0.945,2.763-1.298,4.022    c-0.005,0.019-0.011,0.038-0.016,0.058c-0.747-2.319-1.267-4.773-1.577-7.442c-0.405-3.465-0.433-6.973-0.084-10.426    c0.663-6.571,2.156-11.633,4.699-15.931C25.8,14.599,32.822,9.491,41.951,7.391c2.647-0.608,5.363-0.972,8.022-1.083    c2.712,0.111,5.429,0.476,8.075,1.083c9.13,2.1,16.153,7.208,20.873,15.184c2.543,4.298,4.036,9.36,4.699,15.932    C83.969,41.96,83.941,45.468,83.536,48.934z"></path><path d="M50.154,65.109c-0.279-0.038-0.546,0.082-0.699,0.311c-0.155,0.233-2.566,4.7-3.343,8.067    c-1.353,5.866-1.136,5.984-0.612,6.269c0.233,0.126,0.591,0.148,0.902-0.173c0.201-0.206,0.587-0.753,1.311-1.781    c0.67-0.952,1.835-2.61,2.374-3.214c0.629,0.664,1.929,2.716,2.524,3.656c0.813,1.284,1.061,1.676,1.392,1.676    c0.096,0,0.198-0.033,0.323-0.086c0.275-0.117,0.429-0.401,0.387-0.691c-0.002-0.024,0.003-0.049-0.001-0.073    c0.002-0.013,0.008-0.035,0.015-0.059c0.003-0.012,0.005-0.02,0.009-0.034c0.011-0.037,0.024-0.076,0.035-0.113    c0.248-0.773,0.71-2.211-0.74-6.579C52.913,68.919,51.307,65.265,50.154,65.109z M53.714,77.541    c-2.141-3.379-2.954-4.422-3.637-4.422c-0.126,0-0.246,0.035-0.371,0.098c-0.488,0.245-1.291,1.312-3.014,3.761    c0.149-0.756,0.371-1.788,0.696-3.196c0.565-2.448,2.101-5.625,2.805-6.985c0.526,0.754,1.469,2.508,2.596,5.903    C53.648,75.288,53.779,76.706,53.714,77.541z"></path><path d="M76.394,55.559c-2.257-2.601-5.292-4.138-9.042-4.574h0c-3.336-0.387-6.4,0.291-9.108,2.015    c-2.213,1.406-3.809,3.366-4.743,5.825c-0.14,0.368-0.107,0.856,0.08,1.185c3.774,6.656,10.172,10.698,18.017,11.381    c0.145,0.013,0.289,0.023,0.434,0.023c0.226,0,0.453-0.025,0.685-0.105c0.3-0.104,0.534-0.276,0.749-0.444    c2.697-2.118,4.667-5.261,5.405-8.622c0.056-0.255,0.075-0.504,0.09-0.704c0.005-0.071,0.01-0.137,0.017-0.197    c0.003-0.031,0.004-0.062,0.004-0.093c-0.05-1.54-0.565-2.931-1.669-4.509C77.023,56.324,76.717,55.931,76.394,55.559z     M77.657,61.438c-0.012,0.16-0.024,0.344-0.064,0.523c-0.674,3.07-2.473,5.94-4.935,7.874c-0.132,0.103-0.259,0.199-0.368,0.236    c-0.141,0.049-0.346,0.035-0.579,0.016c-7.509-0.654-13.385-4.363-16.981-10.702c-0.008-0.023-0.009-0.079-0.005-0.095    c0.831-2.189,2.251-3.933,4.221-5.185c2.002-1.274,4.223-1.915,6.622-1.915c0.535,0,1.08,0.032,1.632,0.096    c3.899,0.454,6.941,2.204,9.041,5.204c0.938,1.342,1.381,2.504,1.431,3.758C77.666,61.307,77.662,61.371,77.657,61.438z"></path></g></g></svg></g></svg>
